<?xml version="1.0" encoding="UTF-8" standalone="no"?>
<!-- Generator: Adobe Illustrator 16.0.0, SVG Export Plug-In . SVG Version: 6.00 Build 0)  -->

<svg
   xmlns:dc="http://purl.org/dc/elements/1.1/"
   xmlns:cc="http://creativecommons.org/ns#"
   xmlns:rdf="http://www.w3.org/1999/02/22-rdf-syntax-ns#"
   xmlns:svg="http://www.w3.org/2000/svg"
   xmlns="http://www.w3.org/2000/svg"
   xmlns:sodipodi="http://sodipodi.sourceforge.net/DTD/sodipodi-0.dtd"
   xmlns:inkscape="http://www.inkscape.org/namespaces/inkscape"
   version="1.1"
   x="0px"
   y="0px"
   width="1024px"
   height="1024px"
   viewBox="0 0 1024 1024"
   enable-background="new 0 0 1024 1024"
   xml:space="preserve"
   id="svg2"
   inkscape:version="0.91 r13725"
   sodipodi:docname="logo.svg"><metadata
     id="metadata58"><rdf:RDF><cc:Work
         rdf:about=""><dc:format>image/svg+xml</dc:format><dc:type
           rdf:resource="http://purl.org/dc/dcmitype/StillImage" /></cc:Work></rdf:RDF></metadata><defs
     id="defs56" /><sodipodi:namedview
     pagecolor="#ffffff"
     bordercolor="#666666"
     borderopacity="1"
     objecttolerance="10"
     gridtolerance="10"
     guidetolerance="10"
     inkscape:pageopacity="0"
     inkscape:pageshadow="2"
     inkscape:window-width="1600"
     inkscape:window-height="844"
     id="namedview54"
     showgrid="false"
     inkscape:zoom="0.4609375"
     inkscape:cx="559.51709"
     inkscape:cy="618.49392"
     inkscape:window-x="0"
     inkscape:window-y="0"
     inkscape:window-maximized="1"
     inkscape:current-layer="Blanc" /><g
     id="Fond"><rect
       width="1024"
       height="1024"
       id="rect5" /></g><g
     id="Blanc"><g
       id="Le_Club_Info"
       transform="translate(-36.1065,0)"><path
         d="m 228.985,750.627 0,-108.617 6.076,0 0,102.393 30.58,0 0,6.225 -36.656,0 z"
         id="path9"
         inkscape:connector-curvature="0"
         style="fill:#fdfdfe" /><path
         d="m 277.212,717.919 c 0,8.528 2.27,15.262 6.833,20.237 4.76,5.077 11.33,7.611 19.645,7.611 4.244,0 8.116,-0.708 11.56,-2.139 4.343,-1.81 8.248,-5.518 11.703,-11.1 l 5.648,2.588 c -3.97,7.513 -10.058,12.586 -18.262,15.214 -3.159,1.02 -6.702,1.514 -10.649,1.514 -9.433,0 -17.209,-3.094 -23.297,-9.269 -6.175,-6.191 -9.257,-13.962 -9.257,-23.291 0,-9.428 3.016,-17.183 9.125,-23.258 6.187,-6.196 13.996,-9.301 23.429,-9.301 9.333,0 17.021,2.896 23.131,8.676 6.175,5.78 9.268,13.304 9.268,22.517 l -58.877,0 z m 42.907,-19.923 c -4.771,-3.45 -10.255,-5.171 -16.43,-5.171 -13.009,0 -21.52,6.382 -25.557,19.167 l 50.958,0 c -1.019,-5.787 -4.014,-10.448 -8.971,-13.996 z"
         id="path11"
         inkscape:connector-curvature="0"
         style="fill:#fdfdfe" /><path
         d="m 473.605,744.254 c -5.681,4.156 -13.371,6.686 -23.131,7.591 -1.108,0.098 -2.326,0.196 -3.642,0.229 -1.317,0.066 -2.666,0.084 -4.103,0.084 -16.431,0 -29.8,-5.179 -40.154,-15.525 -10.441,-10.447 -15.673,-23.883 -15.673,-40.308 0,-16.431 5.166,-29.818 15.509,-40.165 10.452,-10.454 23.888,-15.674 40.318,-15.674 9.323,0 17.769,1.365 25.259,4.107 4.465,1.728 8.774,4.224 12.942,7.458 l 0,7.771 c -4.267,-3.565 -8.938,-6.405 -13.994,-8.544 -7.723,-3.121 -15.773,-4.695 -24.207,-4.695 -14.39,0 -26.257,4.661 -35.58,13.996 -9.334,9.328 -13.996,21.234 -13.996,35.745 0,14.499 4.597,26.377 13.832,35.612 9.322,9.329 21.255,13.996 35.745,13.996 9.027,0 16.879,-1.646 23.582,-4.881 3.849,-1.921 8.742,-5.013 14.619,-9.279 l 0,7.162 -7.326,5.32 z"
         id="path13"
         inkscape:connector-curvature="0"
         style="fill:#fdfdfe" /><path
         d="m 490.068,750.627 0,-112.571 6.076,0 0,112.571 -6.076,0 z"
         id="path15"
         inkscape:connector-curvature="0"
         style="fill:#fdfdfe" /><path
         d="m 550.152,745.159 c -4.169,4.469 -9.981,6.686 -17.506,6.686 -7.393,0 -13.141,-2.173 -17.188,-6.537 -4.068,-4.354 -6.075,-10.454 -6.075,-18.252 l 0,-39.243 6.241,0 0,39.243 c 0,5.995 1.315,10.596 3.947,13.848 2.721,3.251 7.096,4.864 13.074,4.864 11.659,0 17.506,-6.241 17.506,-18.712 l 0,-39.243 6.086,0 0,39.243 c 0.001,7.701 -2.038,13.749 -6.085,18.103 z"
         id="path17"
         inkscape:connector-curvature="0"
         style="fill:#fdfdfe" /><path
         d="m 628.804,742.269 c -6.307,6.29 -13.996,9.444 -23.12,9.444 -10.453,0 -19.03,-4.224 -25.731,-12.646 l 0,11.561 -6.241,0 0,-112.572 6.241,0 0,61.449 c 6.604,-8.408 15.18,-12.614 25.731,-12.614 9.124,0 16.781,3.087 22.956,9.279 6.317,6.295 9.433,13.996 9.433,23.115 -10e-4,9.131 -3.084,16.787 -9.269,22.984 z m -4.563,-41.546 c -5.188,-5.156 -11.363,-7.755 -18.558,-7.755 -7.294,0 -13.503,2.533 -18.569,7.622 -5.155,5.161 -7.755,11.402 -7.755,18.695 0,7.212 2.6,13.403 7.755,18.563 5.165,5.188 11.373,7.766 18.569,7.766 7.293,0 13.468,-2.544 18.558,-7.602 5.155,-5.177 7.754,-11.418 7.754,-18.728 0,-7.193 -2.599,-13.369 -7.754,-18.561 z"
         id="path19"
         inkscape:connector-curvature="0"
         style="fill:#fdfdfe" /><path
         d="m 694.513,750.627 0,-108.617 6.11,0 0,108.617 -6.11,0 z"
         id="path21"
         inkscape:connector-curvature="0"
         style="fill:#fdfdfe" /><path
         d="m 756.285,750.627 0,-37.565 c 0,-13.294 -5.989,-19.93 -17.944,-19.93 -5.879,0 -10.342,1.712 -13.403,5.161 -3.124,3.449 -4.693,8.176 -4.693,14.158 l 0,38.176 -6.251,0 0,-62.814 6.251,0 0,7.59 c 2.819,-5.571 8.862,-8.363 18.097,-8.363 7.82,0 13.798,2.231 17.944,6.686 4.169,4.47 6.241,10.709 6.241,18.727 l 0,38.176 -6.242,0 z"
         id="path23"
         inkscape:connector-curvature="0"
         style="fill:#fdfdfe" /><path
         d="m 798.141,644.28 -4.114,-0.444 c -5.683,0 -8.511,3.34 -8.511,10.041 l 0,33.936 14.884,0 0,6.225 -14.884,0 0,56.59 -6.242,0 0,-56.59 -8.533,0 0,-6.225 8.533,0 0,-35.762 c 0,-9.646 4.871,-14.456 14.589,-14.456 2.236,0 3.652,0.116 4.278,0.313 1.205,0 2.587,0.362 4.101,1.054 l 0,6.24 -4.101,-0.922 z"
         id="path25"
         inkscape:connector-curvature="0"
         style="fill:#fdfdfe" /><path
         d="m 857.927,742.269 c -6.273,6.29 -13.996,9.444 -23.122,9.444 -9.135,0 -16.791,-3.104 -22.966,-9.303 -6.308,-6.273 -9.434,-13.994 -9.434,-23.125 0,-9.021 3.126,-16.678 9.434,-22.961 6.175,-6.395 13.831,-9.598 22.966,-9.598 9.028,0 16.683,3.158 22.957,9.443 6.308,6.295 9.466,13.996 9.466,23.115 0,9.132 -3.126,16.788 -9.301,22.985 z m -4.399,-41.679 c -5.09,-5.188 -11.308,-7.765 -18.724,-7.765 -7.096,0 -13.248,2.644 -18.403,7.897 -5.286,5.291 -7.919,11.466 -7.919,18.563 0,7.212 2.6,13.403 7.755,18.563 5.188,5.188 11.373,7.766 18.567,7.766 7.283,0 13.502,-2.544 18.559,-7.602 5.188,-5.177 7.755,-11.418 7.755,-18.728 0,-7.391 -2.534,-13.633 -7.59,-18.694 z"
         id="path27"
         inkscape:connector-curvature="0"
         style="fill:#fdfdfe" /></g><g
       id="Human_Evolution_Vecto_Nath"><path
         fill-rule="evenodd"
         clip-rule="evenodd"
         fill="#FFFFFF"
         d="M413.79,314.12c0.713,0,1.419,0,2.125,0    c17.898,13.438,36.454,26.216,54.871,39.136c-0.041-9.023-1.086-18.006,5.53-23.396c3.26-2.659,12.735-7.624,19.145-6.806    c4.34,0.551,7.025,3.99,11.482,5.104c-1.834,0.706-2.132,2.706-1.71,6.806c0.118,0.95,0.845,2.002,0.865,2.976    c0.042,1.881-0.699,2.694-0.429,3.83c0.602,2.561,2.014,3.742,3.827,4.68c0.249,1.815-1.793,1.322-2.554,2.125    c0.657,2.064-0.845,2.773-0.845,4.255c-0.014,3.649,4.235,5.909,1.696,9.781c-5.108,1.554-11.746,1.58-11.912,8.086    c3.475,3.757,8.202,5.996,12.341,8.931c4.152,2.948,7.945,6.4,12.333,8.935c2.319-0.597,7.067-0.758,9.358,0    c2.429,0.979,2.54,4.261,4.686,5.53c-0.312,2.146,1.294,2.385,0.837,4.681c11.843,9.292,24.336,17.938,37.008,26.37    c0,0.709,0,1.42,0,2.125c-1.563,1.482-3.883-0.466-5.101-1.271c-1.675-1.125-3.253-2.408-4.686-3.405    c-9.572-6.732-19.165-14.17-28.495-20.414c-3.356,1.016-8.568,3.307-12.333,1.273c-5.974,4.371-11.033,9.673-18.286,12.761    c0.519,4.183-2.457,7.868-2.983,10.637c-0.644,3.41,0.166,7.784,0,11.479c-0.305,6.904-1.91,12.041,0,17.452    c1.8,5.078,5.066,10.314,7.233,16.148c2.145,5.826,4.187,11.922,4.686,18.723c0.283,3.917-0.34,7.546,0,11.06    c0.664,7.081,7.412,11.724,3.398,18.71c1.142,13.094,3.633,31.471,1.28,45.103c-0.271,1.567-1.198,3.159-1.28,4.675    c-0.271,4.759,2,11.96,4.249,14.473c2.45,2.713,9.413,5.367,12.763,6.797c4.264,1.827,9.787,3.111,11.482,8.087    c-7.593,3.443-16.798,0.063-25.09-0.861c-5.529-0.609-10.568,0.716-15.738,0c-0.81-4.447,2.076-8.084,2.554-12.323    c0.367-3.381,0.45-7.983-0.429-11.922c-0.437-1.917-1.834-3.17-2.562-5.102c-1.253-3.377-2.063-7.751-2.976-11.911    c-1.834-8.435-4.79-21.279-0.423-28.929c-0.857-8.645-2.388-16.605-8.499-19.985c-5.689,11.009-11.891,28.879-15.746,42.957    c-2.229,8.186-7.031,23.849-0.851,31.054c3.101,3.62,11.725,5.163,16.161,7.236c1.37,0.633,4.229,1.346,3.834,3.401    c-1.876,2.499-5.979,1.699-9.357,1.699c-3.786,0-7.717,0.312-11.489,0c-1.612-0.124-3.184-0.785-4.672-0.848    c-4.457-0.166-9.593,1.883-12.348-1.277c-0.104-7.679,3.018-13.61,2.983-20.421c-0.021-4.831-1.468-9.586-1.696-14.036    c-0.408-7.98-0.159-15.476,2.125-21.269c0.796-2.023,2.547-3.452,3.398-5.111c2.977-5.764,5.357-12.895,5.537-19.985    c0.063-2.696-0.747-5.307-0.852-8.086c-0.312-7.535,0.312-18.161,1.689-24.671c-2.562-0.693-2.589-3.919-4.672-5.099    c2.11-4.096-0.395-11.455,2.547-15.322c-2.562-5.649-8.499-12.491-10.624-21.26c-0.955-3.902-0.713-9.77-1.71-14.892    c-0.408-2.13-1.377-3.917-1.273-5.959c0.09-1.81,1.232-2.712,1.71-4.676c0.774-3.28,0.187-7.997,1.273-11.904    c0.567-2.08,2.207-3.737,2.547-5.531c0.491-2.596-0.561-5.422,0-7.666c0.325-1.301,2.208-2.368,2.976-4.249    c0.831-2.017,0.596-4.006,1.288-5.53c1.646-3.681,3.938-5.39,8.076-5.53c1.295-3.515,2.375-7.257,5.108-9.361    c-0.318-0.368-2.125-0.341-3.412-0.844c-0.498-1.363-0.567-3.385-2.547-2.125c0.132-0.99-0.076-1.639-0.43-2.135    c-14.485-10.211-29.353-20.51-43.389-30.627c-4.748-3.426-9.835-6.504-14.037-10.636    C413.333,315.078,413.458,314.504,413.79,314.12z M505.67,398.773c7.578,0.922,11.808-1.52,14.036-5.956    c-6.499-6.971-15.746-11.2-22.972-17.446C499.378,383.509,505.005,388.651,505.67,398.773z"
         id="path30" /><path
         fill-rule="evenodd"
         clip-rule="evenodd"
         fill="#FFFFFF"
         d="M329.988,385.587c-0.083,2.327-3.225,1.603-3.834,3.405    c-0.229,3.551,4.457,4.246,3.412,7.23c1.571,0.688,3.024,1.504,3.821,2.975c0.221,2.779-1.087,4.013-1.274,6.376    c-2.914,0.242-3.779,3.689-6.381,4.261c-4.25,0.933-5.655-2.582-8.936-2.981c-5.537-0.668-8.181,6.033-14.028,3.405    c0.156,4.41-2.426,6.08-4.686,8.08c1.007,9.106-1.232,18.598-7.658,21.696c-1.277,6.52-3.547,12.056-7.652,15.746    c3.606,10.53,7.278,21.551,6.375,34.021c-0.343,4.735-2.104,8.821-0.426,13.608c2.177,6.169,6.8,10.875,5.952,18.723    c-0.249,2.332-1.938,3.576-1.267,6.81c-0.754,1.647-2.384,2.425-2.55,4.665c-0.9,0.757-1.263,0.975-2.551,0.435    c-0.433,6.252-0.329,12.896-1.284,19.137c-0.415,2.797-1.813,5.638-2.125,8.084c-0.737,5.869-0.737,15.726,1.273,19.57    c1.807,3.471,11.175,9.745,16.161,10.635c5.715,1.018,11.654,1.723,14.9,5.952c-1.433,1.73-5.06,1.574-8.091,1.699    c-9.608,0.446-20.925,0.166-30.203,0c-3.111-0.042-5.786,1.09-8.077-0.849c-1.408-4.498-1.118-10.617,2.54-12.337    c-0.343-7.402-0.104-13.319-2.54-19.134c-1.336-3.173-4.052-5.869-5.108-8.935c-1.381-4.025-1.796-9.767-0.416-14.038    c1.066-3.338,6.51-8.261,4.676-14.471c-0.322-1.037-1.713-2.923-3.412-2.975c-3.212-0.104-6.281,7.93-8.074,11.496    c-5.091,10.117-7.361,15.869-13.611,25.084c-1.969,2.904-6.015,9.704-5.537,13.621c0.395,3.153,7.818,8.926,10.638,10.199    c2.931,1.339,6.696,1.765,9.783,2.986c2.613,1.038,6.115,1.865,7.226,5.101c-4.779,1.609-8.509,2.167-13.185,1.699    c-6.208-0.609-11.133-4.713-17.012-3.824c-1.637,0.249-3.004,1.782-4.675,2.125c-4.083,0.827-7.762,0.249-11.06-1.699    c-0.308-3.599-0.208-7.205,1.277-10.209c0.779-1.588,2.582-2.408,3.398-3.827c1.464-2.551,3.205-9.268,3.402-12.77    c0.322-5.371-0.852-8.645-0.426-12.749c0.623-5.869,1.99-10.389,4.25-14.038c2.468-3.969,7.797-6.053,8.087-13.195    c-0.581-1.854-2.201-0.031-3.402,0c0.27-2.748-0.093-4.135-2.125-2.551c2.25-9.546-5.485-12.231-5.959-20.421    c-0.436-0.236-2.467,0.374-1.702-2.125c-0.298-1.337-2.426,1.172-2.547,0c0.204-2.486,1.003-4.374,1.699-6.385    c-5.973-7.307-7.776-17.621-3.828-27.635c1.132-2.883,2.201-6.096,3.828-8.085c1.346-1.66,3.679-2.468,5.108-4.261    c1.941-2.446,3.288-6.542,5.101-10.205c1.661-3.348,3.907-6.92,4.675-10.211c0.353-1.456-0.063-3.161,0.436-4.686    c0.602-1.881,2.488-4.338,3.813-6.8c8.603-15.798,20.836-32.632,41.268-35.731c1.035-2.42,1.668-5.535,4.26-7.23    c1.018-0.668,2.52-0.596,3.813-1.28c4.229-2.192,6.14-5.328,10.65-5.954c8.748-1.213,15.773,2.953,18.715,8.936    C326.942,382.68,329.337,383.26,329.988,385.587z"
         id="path32" /><path
         fill-rule="evenodd"
         clip-rule="evenodd"
         fill="#FFFFFF"
         d="M140.697,601.254c-0.433,0-0.848,0-1.284,0    c-5.132-0.982-13.725-2.26-18.286,0c-2.695,0-5.388,0-8.084,0c-0.561-0.713-1.886-0.664-2.55-1.287    c-0.924-3.004,0.312-6.88,1.699-8.922c-0.499-8.181-1.19-16.368,0.851-22.549c0.786-2.36,3.17-7.098,1.699-10.631    c-2.966-2.562-8.146-2.903-10.634-5.963c-2.239,5.948-2.696,12.53-8.077,15.32c-8.468,4.408-21.29,9.817-13.611,24.245    c3.402,1.557,7.029,2.883,9.351,5.537c-0.083,1.886-1.906,2.052-2.55,3.398c-5.066-1.876-10.676-3.212-17.435-3.398    c-4.021-4.489-3.699-13.32-9.787-15.746c0-1.143,0-2.271,0-3.412c0.935-0.619,1.827-1.284,3.402-1.264    c4.198-7.091,9.704-12.811,16.171-17.022c2.156-1.405,5.274-2.609,5.949-5.533c0.499-1.907-2.374-0.454-1.699-2.549    c-1.616-0.354-0.498,2.054-2.125,1.7c0.291-1.7-0.405-2.427-0.426-3.827c-4.966-5.71-12.417-12.863-9.787-23.396    c-0.083-0.621-1.024-0.393-1.699-0.424c0.031-1.067,4.188-1.711,1.699-2.55c0.249-1.026,1.609-0.943,2.55-1.275    c11.746-14.938,24.01-29.739,40.842-39.142c5.804-3.234,12.583-6.106,20.421-6.374c1.242-3.432,2.426-6.936,6.374-7.662    c2.52-2.715,5.938-6.541,11.061-7.234c6.987-0.923,13.538,2.031,16.161,6.811c2.426-0.011,3.72,1.108,4.675,2.55    c-0.083,1.896-2.063,1.907-2.966,2.975c0.955,4.582,4.852,6.219,7.651,8.936c0.062,2.332-0.499,4.042-0.851,5.961    c-3.06,1.119-3.617,4.405-6.8,4.674c-2.82,0.249-4.541-2.477-8.084-2.125c-1.277,3.204,0.516,7.517,0.848,11.911    c0.54,7.255,0.613,14.159-0.425,20.845c3.578,3.515,7.433,6.738,10.627,10.637c7.751,2.777,19.943,8.075,25.529,14.884    c0.612,0.758,1.215,2.21,2.125,3.412c2.696,3.555,5.775,5.679,2.976,10.198c0.696,2.862,2.924,4.178,2.976,7.662    c-2.509,0.246-3.786-1.443-5.526,1.273c-1.149-0.412-2.052-1.069-2.125-2.551c-3.049,2.728-4.322-1.366-7.658-0.851    c0.031-1.986,1.138-4.091,0.422-7.658c-7.388-3.669-10.604-11.507-20.421-12.76c2.986,6.198,7.008,11.919,9.361,18.722    c0.945,2.714,0.779,5.42,1.713,8.084c1.139,3.295,3.398,4.52,3.814,7.233c0.301,1.879-0.727,3.858-0.416,6.367    c0.374,3.06,3.938,5.897,2.125,9.371c-4.987-0.332-9.506,1.378-13.185-1.287c-1.522,0.208-2.457,0.695-3.824,0    c-0.893-1.647-2.301-5.184,0-6.374c-2.073-3.329-1.64-9.6,1.699-11.061c-5.745-9.766-13.413-20.358-21.705-28.07    c-2.395-2.25-7.817-5.287-9.351-7.66c-3.959-6.148,5.638-13.975-0.851-19.996c-1.72-0.29-0.723,2.114-1.699,2.549    c-1.886,0.332-1.46-1.657-2.55-2.125c-1.533,0.902-0.931,1.919-0.437,3.826c-2.671-0.717-3.273-3.524-3.824-6.374    c-8.219,1.128-14.099,4.61-17.009,11.06c1.99,4.954,5.066,8.821,7.648,13.185c0.343,1.078,1.761,1.078,2.55,1.699    c0.27,2.852,2.26,5.319,2.561,8.514c0.446,4.686-1.564,8.485-2.125,13.171c-0.841,6.887-1.803,14.794-0.436,20.857    c5.288,4.644,16.722,3.132,22.121,7.651c0.519,2.073-1.959,1.163-1.264,3.398C145.652,600.728,143.289,600.175,140.697,601.254z"
         id="path34" /><g
         id="g36"><path
           fill-rule="evenodd"
           clip-rule="evenodd"
           fill="#FFFFFF"
           d="M420.171,384.731c0.595,1.681,2.104,2.437,2.125,4.681     c-0.609,1.239-2.07,1.616-3.412,2.13c-0.575,1.4-0.173,3.784-1.696,4.25c-3.232,2.545-6.541-0.496-9.787-0.424     c-5.087,0.119-11.663,5.317-11.898,11.061c-0.104,2.104,1.481,3.854,2.125,6.379c1.883,7.583,1.239,15.471-4.264,18.291     c-1.121,3.691-2.007,7.624-1.702,12.76c4.409,3.566,10.617,6.563,15.316,10.636c3.052,2.654,5.468,5.951,11.061,6.386     c5.211,0.394,13.399-2.094,18.292,1.274c1.834,3.463,1.952,5.349,0.416,8.501c-0.547,1.161-1.267,2.674-2.125,4.685     c-0.374,0.903,0,2.322-1.273,2.55c-3.703-0.093-6.873,0.312-10.202-1.698c-2.014-1.214-2.499-4.086-4.263-5.112     c-2.083-1.202-5.502-0.787-8.506-1.265c-7.683-1.233-15.144-3.399-21.262-6.811c-1.391,2.437-0.27,7.393-1.703,9.787     c7.911,9.474,15.282,17.403,20.84,28.92c1.855,3.847,2.478,8.138,4.25,12.336c1.875,4.385,4.734,6.811,4.256,14.46     c-0.208,3.441-1.772,5.452-2.547,9.371c-1.578,7.92-0.208,14.065-2.547,19.987c-0.727,1.813-2.803,3.522-3.412,5.522     c-1.688,5.564-1.121,13.112,0.437,17.013c1.716,4.374,7.226,9.149,11.482,11.067c4.762,2.146,11.808,2.117,14.452,7.651     c-7.081,1.117-15.884,2.063-24.245,1.284c-1.17-0.111-2.554-0.797-3.813-0.849c-6.056-0.27-12.763,1.45-16.597-2.55     c-0.471-3.627,2.692-4.914,3.398-7.236c0.817-2.696,1.024-7.361,1.274-11.061c1.163-17.103-9.759-31.978,1.703-45.101     c-0.422-7.215-3.08-12.212-8.929-14.025c-4.686,3.39,0.139,16.294-8.506,15.735c-5.627,6.676-17.684,17.695-25.519,25.521     c-1.35,1.339-2.644,2.996-3.842,4.686c-2.561,3.616-5.447,8.894-3.82,15.31c0.734,2.903,1.522,8.551,3.405,10.635     c1.89,2.083,5.703,1.101,6.381,5.101c-2.665,1.599-9.468,0.665-12.34-1.263c-1.654-1.132-4.61-5.99-6.382-7.673     c-4.042-3.823-12.949-5.35-12.34-10.634c0.312-2.676,2.658-2.021,6.381-4.25c2.796-1.658,10.32-9.745,11.489-13.188     c0.845-2.475,0.332-5.212,0.852-7.232c1.751-6.779,6.43-13.372,11.489-17.437c3.737-3.016,9.731-5.234,10.208-9.785     c0.291-2.756-1.931-5.908-3.412-10.21c-1.377-4.001-2.941-8.447-3.391-12.76c-0.152-1.39,0.436-4.303,0-5.95     c-0.409-1.493-2.028-2.862-2.983-4.25c-2.436-3.607-5.288-8.936-5.952-14.896c-0.346-3.099,0.602-6.374,0-9.774     c-0.381-2.124-1.979-3.971-2.983-5.971c-2.796-5.598-6.195-12.771-7.226-19.562c-0.415-2.679-1.059-7.821-0.422-11.06     c0.851-4.344,5.62-8.577,8.506-11.905c3.329-3.861,5.869-7.184,11.061-9.366c5.737-10.283,12.008-20.031,22.127-25.94     c0.083-8.904,3.571-19.585,11.046-22.546c5.08-2.016,17.144-1.146,21.698,1.27c4.353,2.313,3.502,7.796,6.81,11.912     c1.045,1.104-0.927,1.585-0.865,2.979C420.621,378.602,424.774,383.155,420.171,384.731z M354.662,455.344     c2.962-1.418,2.505-8.013,2.125-12.759c-0.325-4.002-1.356-7.521-2.554-9.361c-0.422,0-0.844,0-1.281,0     C354.309,439.816,354.835,447.228,354.662,455.344z"
           id="path38" /><polygon
           fill-rule="evenodd"
           clip-rule="evenodd"
           fill="#FFFFFF"
           points="422.898,467.492 413.354,493.864 432.685,474.729         "
           id="polygon40" /></g><path
         fill="#FFFFFF"
         d="M592.58,547.258l80.688-167.568c0,0,6.208-7.764,2.713,3.1l-79.089,166.024c0,0-3.835,6.975,0,12.803    l11.6,11.247c0,0,13.186,6.208,9.31,11.247l-8.929,5.824l-46.933-30.65c0,0,8.922-9.31,16.673-5.039    C586.371,558.505,591.375,549.777,592.58,547.258z"
         id="path42" /><path
         fill="#FFFFFF"
         d="M753.298,373.479c0,0-7.752-8.79-17.58-9.562c-9.835-0.784-11.642,7.234-13.185,13.086    c-1.564,5.848-4.914,8.889-6.209,9.926c-1.301,1.036,0,2.581,0,2.581l-3.883-0.514c-34.135,4.39-36.197,39.308-36.98,44.739    c-0.768,5.433-4.914,18.623-4.914,18.623c-7.232,8.79-5.945,16.294-5.945,16.294c-1.806,12.917,10.604,21.458,10.604,21.458    c6.209,20.172,12.68,27.668,12.68,27.668v8.28c-5.177,3.1-7.246,5.432-7.246,5.432c-11.123,4.127-12.673,19.645-13.455,21.716    c-0.769,2.063-9.302,16.036-13.704,18.099c-4.396,2.076-3.869,5.434-3.869,5.434c-2.332,5.433,10.077,7.766,10.077,7.766    c2.07,0.519,9.828,8.53,9.828,8.53c3.613,3.097,11.898,1.034,11.898,0.516c0-0.516-8.805-7.763-8.805-7.763    c-6.713-6.717-3.861-11.631-3.861-15.258c0-3.619,15.504-19.654,15.504-19.654s17.074-17.063,19.926-20.161    c2.831-3.109,2.063-5.432,2.063-5.432l0.256-8.013c8.527,5.161,8.015,10.987,8.015,10.987c-3.356,2.197-5.952,8.396-5.952,8.396    c-4.9,12.937,1.309,25.343-0.256,35.949c-1.543,10.604-5.434,14.739-5.434,14.739c-5.163,8.024,1.813,11.641,1.813,11.641    c5.696,3.102,31.298,1.163,31.298,1.163l3.102-1.419c6.464-2.852-8.278-3.879-8.278-3.879c-7.752-3.887-11.122-8.025-11.122-8.025    c-4.658-1.284-4.382-10.59-2.319-13.704c2.063-3.097,9.814-28.441,10.617-33.355c0.796-4.914,3.593-11.899,3.593-11.899    c0.595-2.343,0.803-4.033,0.823-5.246c0.443-3.771-3.121-8.686-3.121-8.696c-5.891-12.74-24.072-34.674-24.072-34.674    s-5.689-10.086-6.458-13.693c-0.775-3.598,1.544-4.923,1.544-4.923c2.845,5.172,16.556,18.357,16.556,19.394    s0.775,7.246,0.775,7.246c2.581,0.508,4.395,6.198,4.395,6.198c4.645,3.358,9.821-1.554,10.077-6.468    c0.263-4.914-5.433-11.889-8.015-12.926c-2.588-1.038-4.651-5.173-5.945-8.521c-1.287-3.338-2.388-6.997-2.388-6.997l16.61,6.997    l0.125-0.208c1.446,0.675,2.395,1.172,2.478,1.39c0.409,0.953,3.551,6.354,3.551,6.354c2.575-0.527,6.472,4.003,6.472,4.003    c5.6,1.265,8.437-5.266,6.755-9.889c-1.688-4.624-9.648-8.832-12.438-8.77c-0.879,0.019-1.854-0.291-2.838-0.789    c-2.437-3.026-20.715-13.829-20.715-13.829v-2.063v-5.948c8.997-5.691,9.891-30.253,9.891-30.253s2.852-1.556,4.657-2.847    c1.8-1.296,4.651,0.26,6.278,2.063c1.605,1.815,5.869,2.587,6.644,1.296c0.783-1.296,0.783-4.914,0.783-6.208    c0-1.291,1.023-1.81,2.844-1.81c1.807,0,2.582-1.549,2.582-1.549c-1.295-1.81-0.52-4.914-0.52-5.95c0-1.037,1.551-3.1,2.326-4.136    c0.789-1.036,1.564-5.434,1.564-5.434c0.505,1.296,4.125,0.779,4.125,0.779C758.994,378.14,753.298,373.479,753.298,373.479z"
         id="path44" /><path
         fill="#FFFFFF"
         d="M903.039,443.3l-5.434,47.33h10.859h1.551l-1.031,2.073h-1.813l0.263,5.681h-2.596l-1.038,12.419    l-29.982,1.036c0,0-5.696,1.545-5.185,7.494h1.551v8.531h6.99l0.52,7.505h9.814l1.807,59.998v1.284h50.697v-2.072h3.107v-56.111    v-3.099h7.752l1.807-7.505h7.496v-5.163l1.827-2.715v-7.049h-8.804l-2.838-11.195c0,0-20.432,0.271-23.532-9.568l-1.038-6.198    l17.074-5.95l0.52-20.172c0,0-20.951-11.889-22.764-13.962L903.039,443.3z"
         id="path46" /><path
         fill="#FFFFFF"
         d="M895.148,498.197c0.567-1.948-5.434-4.852-5.434-4.852c-2.318-2.716-11.046-5.619-11.046-5.619    s-0.789-0.787,0.948-2.341l0.596-0.706l4.007,0.995c0.097,0.052,0.437,0.229,0.831,0.457c0.471,0.259,0.996,0.579,1.211,0.745    c0.159,0.146,0.449,0.354,0.823,0.561c0.374,0.188,0.796,0.372,1.253,0.394c0.354,0.021,0.755-0.073,1.059-0.372    c0.291-0.302,0.457-0.748,0.499-1.338v-0.011v-0.021c0.021-0.457-0.208-0.85-0.54-1.202c-0.561-0.603-1.481-1.109-2.582-1.598    c-2.395-1.077-5.585-1.948-7.094-2.321v-0.063c-4.125-0.995-8.188-1.325-8.188-1.325c-0.789-1.369-6.402,1.532-8.922,2.715    c-2.533,1.182-4.852,6.199-4.852,6.199s-6.209,7.172-8.534,6.985c-2.333-0.195-7.185,0-7.185,0    c2.139-5.037-0.768-14.159-0.768-14.159c2.72-6.208,0.387-16.876,0.387-16.876l10.563,0.582c1.646,3.688,7.668,2.518,7.668,2.518    l1.544-2.715l1.758-3.1l0.367-2.116c0,0,1.571-0.216,2.54-0.021c0.969,0.187,0.769-1.938,0.374-2.528    c-0.374-0.57-0.769-5.618-0.769-5.618l1.551-1.358l0.969-7.95c2.52,0.389,3.309-1.741,3.309-1.741    c-0.977-4.852-12.037-10.667-21.158-12.808c-9.102-2.13-11.248,7.759-13.566,13.771c-2.332,6.012-3.876,6.012-3.876,6.012    c-16.299-3.297-26.57,5.235-26.57,5.235c-15.331,13.899-17.981,23.645-18.244,29.937c-0.748,5.856-1.966,16.296-2.499,26.411    c-0.063,0.498-0.11,0.976-0.152,1.431h-0.014c-3.986,8.48-2.962,15.104-2.464,17.188c-1.73-0.094-4.208,0.166-6.104,1.845    l-1.951,2.321c0,0-1.351-2.715-0.395-13.371c0,0,3.688,4.665,8.928-5.432V489.47c0,0-3.869-13.414-8.533-4.271v7.369l-1.544,0.642    c0,0-3.627-1.036-3.627,3.494c0,4.529,0.52,31.554,0.52,31.554s2.069,5.556,5.564,8.656c0,0,1.412,1.938,4.52,2.591h12.541v1.42    h-1.55l-0.264,1.938h6.728v-1.813h-2.457v-1.545l3.108-0.258l1.162,0.258v2.249l-2.132,1.441l-5.495,3.598    c0,0-5.434,3.771-5.828,5.712c-0.381,1.938,0,3.491,2.914,1.159c2.914-2.331,4.264-5.048,4.264-5.048l5.031-3.732l1.246-0.496    V554.4c-0.125,1.222-0.395,2.405-0.457,3.609c-0.063,1.19,0.166,2.423,0,3.596l-0.234,0.454v0.902l-0.513,0.447v0.899    c-0.049,0.727,0.208,1.536,0.249,2.263c0.104,1.689,0.035,3.564,0,4.956c0,0.392,0.222,1.294-0.249,1.571    c-4.125-0.641-10.084-0.703-13.905,0.229l-0.249,0.457l-0.242,0.228c-0.193,0.312-0.152,0.728-0.505,0.894    c-0.208,0.899,0.381,1.668,0,2.031c-0.886-0.063-1.19,0.415-1.979,0.457c0.042,0.944-1.184,0.993-1.744,1.117    c-0.603,0.146-1.232,0.332-1.73,0.457l-0.256,0.229c-0.679,0.187-1.073,0.124-1.495,0.229c-0.672,0.145-1.558,0.519-1.993,0.671    c-0.333,0.125-0.547,0.083-0.983,0.229c-0.442,0.139-0.754,0.367-0.996,0.446c-0.374,0.135-0.609,0.135-0.997,0.229    c-0.429,0.104-0.886,0.332-1.231,0.446c-1.273,0.446-2.541,0.733-2.983,1.356l-0.249,0.675c-0.34,0.728-0.256,1.672-0.249,2.706    c-0.983-0.062-1.522,0.271-1.993,0.676c-0.526,0.234-0.97,0.754-0.99,1.128l-0.249,0.229c-0.166,0.685-0.2,2.218,0.498,2.031    c-0.014,1.442,0.928,2.011,1.737,2.695c1.544,0.208,2.271-0.332,3.481-0.446c0.312-0.321,0-0.384,0-0.675    c0-0.457,0.845-0.951,0.491-1.803c0.852,0.011,1.08-0.529,1.502-0.91c0.098-0.955-0.249-2.312,0.235-2.925    c1.509-0.083,3.322-0.644,4.479-0.902l0.249-0.229c0.616-0.132,1.35-0.069,1.993-0.215l0.235-0.229    c1.072-0.249,1.841-0.415,2.74-0.457l0.236-0.229c1.142-0.207,2.519-0.27,3.744-0.446c0.312-0.052,0.353-0.176,0.733-0.218    c0.935-0.125,1.19-0.146,1.744-0.229h0.733l0.264-0.229c1.294-0.152,2.65-0.124,3.966-0.229c1.543-0.124,3.71-0.332,4.72-0.456    c0.775-0.083,0.99,0.166,1.239,0.228c0.574,0.139,1.468-0.27,1.495,0.229c0.207,3.485-0.623,7.012-0.249,9.922    c-2.25-0.166-4.001,1.865-3.724,3.609c0.055,0.381-0.111,0.993,0.747,0.9c0.222,1.204,0.928,2.426,2.243,2.706    c0.608,0.135,1.335-0.094,2.229,0c0.27-0.333,0.685-0.561,0.982-0.903c0.325-0.35,0.457-0.717,0.754-1.118v-0.913l0.748-0.229    c0.388-0.464,0.616-0.893,0.74-1.347c0.395-1.388-0.325-3.235,0.506-3.838c0.395-0.29-0.174-1.034,0.234-1.346v-1.132    c0.063-0.713,0.201-1.045,0.25-1.356c0.124-0.769-0.063-1.107,0.249-1.347v-0.456c0.325-1.015,0.208-2.385,0.997-3.153    c1.792-0.567,3.605-0.519,5.46-0.456c1.309,0.041,2.624,0.146,3.932,0.27c1.854,1.682,3.959,3.069,5.461,3.464    c3.688,0.973,5.433,7.963,6.015,10.863c0.581,2.914,9.891,1.557,9.891,1.557s4.457,0,6.008-1.557    c1.55-1.544-3.689-1.928-3.689-1.928l-3.696-2.26c0.63,0.042,1.239-0.135,1.917-0.031l0.506-0.446    c0.381-0.353,0.581-0.789,0.733-1.139c0.125-0.238,0.249-0.332,0.249-0.664c0.229-0.862,1.219-1.159,1.495-2.26    c0.083-0.312,0.042-0.831,0-1.35c-0.042-0.651-0.249-1.17,0-1.356v-0.443c0.132-1.018-0.29-1.89-0.498-2.035v-0.457    c-0.277-0.432-1.834-1.2-2.235-1.346c-0.374-0.146-0.603-0.146-0.99-0.229c-0.422-0.101-0.928-0.363-1.253-0.446    c-0.879-0.256-1.861-0.588-2.215-0.682c-0.332-0.073-0.519-0.155-0.761-0.218c-0.332-0.094-0.672-0.166-0.9-0.208    c-1.709-8.347,0.872-13.527,0.872-13.527c11.829-22.505,27.347-36.664,27.347-36.664c6.977-4.457,5.82-7.753,6.194-12.792    c0.395-5.049-8.915-10.676-8.915-10.676c5.634-11.052,12.998-11.236,12.998-11.236s2.326,2.507,4.264,6.001    c1.952,3.493,2.318,3.888,4.076,3.307c1.738-0.591-0.187-2.715-0.187-2.715v-3.111c0,0,1.149-0.767,5.032-0.767    c3.89,0,3.495,2.901,3.495,2.901c1.543,3.878,3.481,1.939,3.481,1.939c1.176-2.913-1.938-4.841-1.938-4.841    C896.505,500.717,895.148,498.197,895.148,498.197z M813.104,499.938c0,0,1.938-8.728,6.977-13.185h6.021    c0,0,0.962,13.185,3.488,17.457l-0.97,0.964h-15.517V499.938z M834.166,586.193l-0.257-0.81c0.367,0.041,0.713,0.094,1.004,0.343    L834.166,586.193z M829.591,546.294c-2.132,4.842-8.735,9.889-8.735,9.889s-1.35-0.976-5.038,2.136    c-3.689,3.101,0.2,6.398,2.52,7.558c2.332,1.174,0.588,3.305,0.588,3.305c-2.733,1.661-4.049,2.575-4.796,3.268    c-2.375,0.238-4.555,0.671-6.541,0.879c-0.035-1.613-0.125-3.107-0.249-4.734c-0.125-1.605-0.076-3.35-0.249-4.955    c-0.069-0.654-0.401-0.551-0.498-0.9c-0.194-0.706,0.062-1.391,0-2.035c-0.042-0.498-0.194-0.857-0.25-1.346    c-0.193-2.271-0.131-4.499-0.249-6.77c-0.083-1.711-0.229-5.67-0.941-5.742v-6.759v-0.975l15.324-0.187c0,0,0.774,0.383,0,1.74    c-0.769,1.358,3.876,1.938,6.789,0.197c2.907-1.751,2.907-9.701-0.782-9.701c2.52-1.545,8.348-0.582,8.348-0.582    C830.373,535.234,831.723,541.444,829.591,546.294z"
         id="path48" /><path
         fill="#FFFFFF"
         d="M602.034,363.508c0,0,0.774-8.314,2.339-8.314c0,0,1.813-25.468,15.85-24.172    c14.037,1.301,23.644,12.216,23.644,12.216s-1.024,4.369-2.589,4.008c0,0-1.294,5.089-3.121,5.612l-0.52,6.749l1.295,2.605    l-2.846,1.296l0.762,2.856l-2.845,2.084l-0.27,6.759c0,0-4.409,2.859-6.236,0c0,0-2.325-2.338-5.71-0.52    c-3.377,1.818-8.582,2.598-8.319,10.909c0,0,2.34,8.844,2.34,13.518c0,4.681-0.52,10.917-4.153,14.818l-3.121,13.776    c0,0,11.434,14.289,16.895,17.928c0,0,7.537,4.421,8.832,4.421c0,0,11.17-1.565,11.17,4.156c0,0-2.068,13.258-9.087,12.99    c0,0-2.34-0.25-4.16-4.148c0,0-0.263-2.859-4.686-5.722c0,0-17.67-9.619-23.38-11.697l-2.083,10.92    c0,0,15.33,19.748,23.649,52.235c0,0,1.302-0.26,0,7.275c0,0-2.339,28.33-5.461,42.874c-3.121,14.572,0.264,23.923,2.347,26.785    c2.069,2.861,10.133,5.713,10.133,5.713s15.061,2.34,12.728,4.936c0,0-6.755,2.868-10.651,3.388c0,0-30.142,1.554-30.405-1.574    c-0.256-3.111,2.076-8.563,3.378-10.659c1.302-2.073,2.852-14.016,0.519-28.318c-2.353-14.306-6.498-23.385-1.045-46.263    c0,0-7.537-3.38-7.537-4.156v10.406c0,0,1.309,2.852-4.672,8.697c0,0-16.888,25.076-22.362,32.351    c-5.454,7.277-8.817,15.593-3.107,21.583l5.461,5.7c0,0,9.095,1.564,9.351,3.647c0.263,2.076-1.309,3.9-5.461,3.641    c0,0-9.303,0.104-11.164-2.343c-1.89-2.437-7.807-5.983-10.915-5.194c-3.121,0.778-11.447-3.638-7.807-8.323    c3.64-4.675,6.243-11.434,6.243-11.434s8.049-9.866,8.838-15.071c0,0-3.641-16.109,16.369-30.933l-1.813-43.91    c0,0-11.448-5.203-9.628-16.117c1.834-10.917,4.941-13.258,4.941-13.258l2.603-11.693l-7.544-19.752c0,0-2.332-1.82,1.834-8.313    c4.153-6.499,9.351-18.716,9.351-18.716s5.447-14.036,13.773-19.233C593.978,370.526,601.709,366.095,602.034,363.508z"
         id="path50" /><polygon
         fill="#FFFFFF"
         points="743.441,467.577 750.841,468.891 763.265,455.531 755.865,454.218   "
         id="polygon52" /></g></g></svg>